<?xml version="1.0" encoding="utf-8"?>
<!-- Generator: Adobe Illustrator 25.0.1, SVG Export Plug-In . SVG Version: 6.00 Build 0)  -->
<svg version="1.1" id="Layer_1" xmlns="http://www.w3.org/2000/svg" xmlns:xlink="http://www.w3.org/1999/xlink" x="0px" y="0px"
	 viewBox="0 0 1920 900" style="enable-background:new 0 0 1920 900;" xml:space="preserve">
<style type="text/css">
	.st0{clip-path:url(#SVGID_2_);fill:#231F20;}
	.st1{clip-path:url(#SVGID_2_);}
	.st2{opacity:0.3;fill:#231F20;}
	.st3{fill:#231F20;}
</style>
<defs>
	<polygon id="SVGID_1_" points="1920.9,900.7 0,900.7 1.6,0 1920,0 	"/>
</defs>
<clipPath id="SVGID_2_">
	<use xlink:href="#SVGID_1_"  style="overflow:visible;"/>
</clipPath>
<path class="st0" d="M644.5-142.3c-1.7-1.6-3.3-3.3-5-4.9c-3.9-3-8.3-4.8-13.2-5.4c-2.4,0-4.9,0.1-7.3,0.1c-4.8,0.7-9,2.6-12.8,5.5
	c-5.7,4.4-9.4,11-10.3,18.2c-0.9,7.2,1.1,14.5,5.6,20.1c1.7,1.6,3.3,3.3,5,4.9c3.9,3,8.3,4.8,13.2,5.4c2.4,0,4.9-0.1,7.3-0.1
	c4.8-0.7,9-2.6,12.8-5.5c5.7-4.4,9.4-11,10.3-18.2C651-129.3,649-136.6,644.5-142.3z"/>
<path class="st0" d="M538.7-51.9c-0.1,0-0.1,0-0.2,0c-1.3-0.6-2.7-1.1-4.2-1.2c-7.5-0.9-14.5,4.6-15.4,12c-0.9,7.5,4.6,14.5,12,15.4
	c2.7,0.3,5.2-0.2,7.5-1.2c0.2,0,0.3,0,0.5,0c2.2-0.3,4.1-1.2,5.9-2.5c2.6-2,4.3-5.1,4.7-8.4C550.5-44.4,545.6-51.4,538.7-51.9z"/>
<path class="st0" d="M543.7-121.3c0-0.1,0-0.1,0.1-0.2c0.2-0.3,0.3-0.7,0.4-1.1c0-0.1,0-0.1,0.1-0.2c0.1-0.2,0.1-0.4,0.2-0.7
	c0-0.1,0-0.2,0-0.3c0-0.2,0-0.4,0-0.6c0-0.2,0-0.4,0-0.6c0-0.1,0-0.2,0-0.3c0-0.2-0.1-0.4-0.2-0.6c0-0.1,0-0.2-0.1-0.3
	c-0.1-0.4-0.3-0.7-0.4-1.1c0,0,0-0.1-0.1-0.1c-0.2-0.3-0.4-0.6-0.6-0.9c-0.1-0.1-0.2-0.2-0.2-0.3c-0.1-0.2-0.3-0.3-0.4-0.4
	c-1-1.1-2.4-1.8-4-2c-0.1,0-0.3,0-0.5,0c-0.8-0.1-1.5,0-2.3,0.2c-0.7,0.1-1.5,0.2-2.2,0.2c-1.5,0.2-2.8,1-3.8,2.1
	c-0.1,0.1-0.1,0.2-0.2,0.2c-0.1,0.2-0.2,0.3-0.3,0.5c-0.2,0.2-0.3,0.5-0.5,0.8c0,0,0,0.1-0.1,0.1c-0.2,0.3-0.3,0.7-0.4,1
	c0,0.1,0,0.1,0,0.2c0,0.2-0.1,0.4-0.1,0.6c0,0.1,0,0.2,0,0.3c0,0.2,0,0.4,0,0.6c0,0.2,0,0.4,0,0.6c0,0.1,0,0.2,0,0.3
	c0,0.2,0.1,0.4,0.2,0.6c0,0.1,0,0.2,0.1,0.3c0.1,0.4,0.2,0.7,0.4,1c0,0,0,0.1,0.1,0.1c0.2,0.3,0.3,0.6,0.5,0.9
	c0.1,0.1,0.2,0.2,0.2,0.3c0.1,0.1,0.3,0.3,0.4,0.4c1,1,2.3,1.7,3.8,1.9c0.8,0.1,1.7,0.2,2.5,0.3c0.6,0.1,1.3,0.2,2,0.1
	c0.2,0,0.3,0,0.5,0c1.6-0.2,3-1,4-2.2c0.1-0.1,0.2-0.2,0.2-0.3c0.1-0.2,0.2-0.3,0.4-0.5C543.4-120.7,543.6-121,543.7-121.3z"/>
<path class="st0" d="M588.8-206.5c-2.5,0-3,3.9-0.5,3.9C590.8-202.6,591.3-206.5,588.8-206.5z"/>
<path class="st0" d="M732.8-283c-0.3,0.1-0.7,0.3-1,0.4c-2.5,1.1-4.2,3-4.6,5.8c-0.5,3.2,1.7,6.2,4.5,7.4c0.4,0.2,0.8,0.4,1.2,0.5
	c4.6,2,9.9-1.3,10.5-6.2C744.1-280.8,738.1-285.3,732.8-283z"/>
<path class="st0" d="M822.4-72.5c-0.2-0.3-0.5-0.6-0.7-0.8c-1.7-2.2-3.9-3.9-6.5-4.9c-2.7-1.1-5.5-1.4-8.4-1
	c-2.8,0.4-5.3,1.5-7.5,3.2c-2,1.6-3.6,3.6-4.7,5.9c-0.7,1.4-1.2,2.8-1.4,4.5c-0.2,1.8-0.1,3.5,0.4,5.1c-0.1-0.2-0.2-0.4-0.3-0.6
	c0.3,4,3.1,8,6.1,10.4c1.2,0.7,2.4,1.4,3.6,2.1c2.1,0.9,4.3,1.2,6.6,1.2c5,0.1,9.8-2,12.9-6C826.8-59.2,826.6-66.9,822.4-72.5z"/>
<path class="st0" d="M904.8,105.7c-17,0-20.5,26.6-3.3,26.6C918.6,132.3,922.1,105.7,904.8,105.7z"/>
<path class="st0" d="M1290.6-79.1c-13.7,0-16.4,21.3-2.6,21.3C1301.6-57.8,1304.4-79.1,1290.6-79.1z"/>
<path class="st0" d="M1208.7-211.1c-2.4-6.6-9.8-9.9-16.4-9.2c-7.8,0.9-13.6,6.7-14.8,14.5c-0.5,3.5,0.2,6.8,1.5,10
	c2,5.1,7.1,8.7,12.5,9.3c2.8,0.3,5.5-0.1,8.1-1.2c2.4-1,4.2-2.6,5.8-4.5c2.7-2.6,4.4-6.1,4.8-9.8
	C1210.5-205.2,1209.8-208,1208.7-211.1z"/>
<path class="st0" d="M1124.5-78.8c-1-6.9-4.8-13.2-10.3-17.4c-6.3-4.8-12.6-5.3-20.2-5.2c-5.2,0.1-9.3,2.2-13,5.1
	c-4.6,2.6-9.1,5.4-12.1,9.9c-3.4,5.1-5.2,10.5-4.3,16.6c0.9,6.2,4.1,10.1,8.5,14.3c4.1,4,9.7,5.3,15.2,6.3c4.3,1.5,9.4,1.9,13.6,0.8
	c7-1.8,12.8-4.3,17.4-10.3C1123.7-64.4,1125.6-71.8,1124.5-78.8z"/>
<path class="st0" d="M447,260c-1.3-1.3-2.5-2.5-3.8-3.8c-3-2.3-6.4-3.7-10.1-4.1c-1.9,0-3.7,0-5.6,0.1c-3.6,0.6-6.9,2-9.8,4.2
	c-4.4,3.4-7.2,8.5-7.9,13.9c-0.7,5.5,0.9,11.1,4.3,15.4c1.3,1.3,2.5,2.5,3.8,3.8c3,2.3,6.4,3.7,10.1,4.1c1.9,0,3.7,0,5.6-0.1
	c3.6-0.6,6.9-2,9.8-4.2c4.4-3.4,7.2-8.5,7.9-13.9C452,270,450.4,264.4,447,260z"/>
<path class="st0" d="M1464.4,363c-2.3-4.2-3.6-6.8-7.6-9.7c-1.6-1.2-7.7-4.4-5.5-3.2c-1.9-1.1-4.2-1.6-6.3-1.7
	c-6.6-0.3-5.9-0.1-12.2,1.7c0,0,0,0,0,0c-0.6,0.3-1.2,0.6-1.8,1c-1.2,0.6-2.3,1.2-3.3,2c0,0-0.1,0.1-0.1,0.1
	c-0.1,0.1-0.2,0.2-0.3,0.2v0l0,0c-0.8,0.6-1.5,1.2-2.1,1.9c-2.3,2.2-4,4.9-5.3,7.9c-1.8,4.4-2.2,8.9-1.3,13.4c0-0.1-0.1-0.2-0.1-0.3
	c0,0.2,0.1,0.3,0.1,0.5c0.1,0.4,0.2,0.8,0.3,1.2c0.7,3.7,2.2,7.1,4.5,10.1c2.5,3.2,5.7,5.6,9.5,7.2c4,1.6,8.1,2.1,12.3,1.5
	c4.1-0.6,7.7-2.2,10.9-4.7c2-1.4,3.7-3.5,5.3-5.2c2.6-3.5,4.2-7.4,4.8-11.7C1466.7,371.2,1466.1,367,1464.4,363z"/>
<path class="st0" d="M1492.3,174.4c-2-4.7-7.7-8.4-12.9-7.2c-1.6,0.3-3,0.7-4.3,1.2c-3.4,0.7-6.7,2.8-8.7,5.5
	c-1.6,2.1-2.5,4.4-2.9,7c0,1.3,0,2.6,0,3.9c0.4,2.5,1.4,4.8,2.9,6.8c3,3,2.5,2.7,6.2,4.7c3.3,1.8,8.3,1.5,11.7,0.1
	c5.5-2.4,9.3-8.4,8.5-14.5C1493.5,179.5,1493.3,176.8,1492.3,174.4z"/>
<path class="st0" d="M1791.9-478.8c-0.4-2.8-1.5-5.3-3.2-7.5c-1.3-2.1-3.3-3.8-5.1-5.4c-3.1-2.6-6.4-3.5-10.2-4.3
	c-4.2-1-9.3,1-12.6,3.5c-3.5,2.8-5.9,6.9-6.4,11.3c-0.5,4.5,0.7,9,3.5,12.5c2.7,3.5,6.6,5.6,10.9,6.3c0.1,0.1,0.2,0.1,0.3,0.2
	c0.3,0.2,0.6,0.4,1,0.5c2.7,1.1,5.5,1.4,8.4,1c4.1-0.6,7.9-2.8,10.4-6.1c1.7-2.3,2.8-4.9,3.1-7.7
	C1792-475.9,1791.9-477.3,1791.9-478.8z"/>
<path class="st0" d="M1123.9-463.9c-3.1-2-6.1-2.9-9.9-2.7c-3.7,0.3-7,3-9.1,5.9c-2.6,3.8-2.8,8.6,0.1,12.3c1.6,2.1,4.1,3.5,6.7,3.8
	c2.3,0.3,4.1-0.3,6-1.3c0,0,0,0,0.1,0c-0.1,0.1-0.3,0.2-0.4,0.3c0.2-0.1,0.4-0.2,0.6-0.3c3.9,0,7.7-2.7,9.1-6.2
	C1128.7-456,1127.6-461.4,1123.9-463.9z"/>
<path class="st0" d="M885-183.9c-5.5-4.2-13.3-1.8-16,4.3c-0.1,0.2-0.2,0.3-0.2,0.5c-0.6,1.8-0.9,3-0.6,4.9c0.2,1.1,0.5,1.9,0.9,2.7
	c-0.1-0.1-0.1-0.2-0.2-0.3c0.5,1,0.6,1.5,1.6,2.7c4.2,5.3,12.5,5.3,16.6-0.1C890.4-173.8,889.5-180.4,885-183.9z"/>
<path class="st0" d="M1029.4-304.5c-1.5-0.6-3.1-0.8-4.8-0.6c-2.5,0.4-4.2,1.7-5.9,3.5c-0.3,0.3-0.5,0.5-0.8,0.8
	c-2.2,2.4-2.1,7.1,0.1,9.4c0.3,0.3,0.5,0.6,0.8,0.8c2.3,2.4,5.1,3.9,8.5,3.4c4-0.6,7.2-3.9,7.7-7.9
	C1035.4-299,1033.1-302.9,1029.4-304.5z"/>
<path class="st0" d="M1424.9-417.3c-7.8,0-14.8,4-15.9,12.4c-0.9,7,4.6,15.9,12.4,15.9c7.8,0,14.8-4,15.9-12.4
	C1438.1-408.4,1432.7-417.3,1424.9-417.3z"/>
<path class="st0" d="M625.9,594.1c-2-0.2-4.1-0.4-6.1-0.6c-7.7-1.1-15,4.8-15.9,12.5c-1.1,9.3,7.1,17.2,16.3,15.9
	c2-0.3,4.1-0.4,6.1-0.6c6-0.6,10.9-6,11.6-11.9C638.7,602.1,633.3,594.9,625.9,594.1z"/>
<path class="st0" d="M1215.7,981.7c-0.9-2.1-1.8-3.3-2.9-4.5c0.2,0.2,0.3,0.3,0.5,0.5c-0.6-0.6-1-1.2-1.5-1.7
	c-0.9-1.6-2.1-3-3.6-4.1c-5.1-3.9-12.8-3.6-17.4,0.8c-0.5,0.3-1,0.6-1.4,1c-3.3,2.5-5.6,6.5-6,10.6c-0.2,1.6-0.1,3.3,0.1,4.9
	c0.3,3.2,1.7,5.4,3.4,8.1c2.5,3.9,7.9,6.3,12.1,7c5.6,0.9,11.5-1.9,14.9-6.3C1217.2,993.3,1218,987,1215.7,981.7z"/>
<path class="st0" d="M1030,1154.8c-4.6-1.4-6.5-1.7-11.3-1.5c-5.1,0.3-10,3.8-13.1,7.7c-4,4.9-4.9,13.4-2.4,19.1
	c2.2,5.1,7.6,9.8,13.4,10.1c3.5,0.2,5.6,0.1,8.9-1.3c1.8-0.8,3-1.6,4.1-2.6c-0.1,0.1-0.1,0.1-0.2,0.2c1-0.9,1.9-1.6,2.8-2.4
	c4.2-2.5,7.1-7.4,7.7-12.1C1040.9,1165.3,1036.9,1157,1030,1154.8z"/>
<path class="st0" d="M724.2,1095.5c-3.8-0.5-7.6,0.6-10.6,2.9c-1,0.8-1.9,1.8-2.7,2.8c-0.7,0.6-1.4,1.3-2.1,2.2
	c-2.3,3-3.3,6.9-2.7,10.6c0.5,3.6,2.5,6.9,5.4,9.1c3.2,2.5,6.7,2.9,10.6,2.7c7.6-0.4,13.7-7,14.6-14.4
	C737.7,1103.8,731.9,1096.5,724.2,1095.5z"/>
<path class="st0" d="M452.8,1069.3c-2-4.6-5-8.4-8.9-11.4c-2.1-1.2-4.3-2.5-6.4-3.7c-4.8-2-9.9-2.6-15-1.8l-0.1,0
	c-4.9,0.8-9.4,2.7-13.3,5.7c-1.7,1.7-3.4,3.4-5.1,5.2c-3.1,4.1-5,8.7-5.6,13.8c0,0,0,0,0,0.1c-0.6,5.1,0.1,10,2.1,14.7
	c2,4.6,5,8.4,8.9,11.4c10.2,7.8,24.7,7.7,34.8-0.2C454.3,1095.2,457.9,1081.1,452.8,1069.3z"/>
<path class="st0" d="M499.4,1232.2c-0.5-6.5-3.9-12.8-9.1-16.8c-5.7-4.4-14.3-6.1-21.2-3.6c-1.3,0.3-2.6,0.7-3.8,1.3
	c-3.9,1.7-7.2,4.3-9.9,7.7c-1.7,1.8-3.5,5.5-4.3,7c-1.7,3.2-2.8,10.4-1.8,14c0.6,2.1,1.2,4.2,1.8,6.3c1.8,4,4.4,7.4,7.8,10
	c7.1,5.4,16.9,6.6,25.1,3.1c6-2.6,10.8-7.5,13.3-13.5c0.9-2.3,1.5-4.6,1.7-6.9C499.6,1237.9,499.8,1235,499.4,1232.2z"/>
<path class="st0" d="M713.9,1275.9c1-1.8,1-4.3,0.1-6.1c-0.5-1.9-1.6-3.5-3.1-4.9c-2.3-4-6.6-6.7-11.2-7.3c-8.2-1-15.9,5-16.9,13.2
	c-0.8,6.7,3,13.3,9.3,15.9c3.8,1.5,8.1,1.5,11.8-0.1c2.7-1.2,5.8-3.6,7.3-6.5C712.4,1279,713.4,1277.5,713.9,1275.9z"/>
<path class="st0" d="M946.1,1126c-5,0-6,7.8-1,7.8C950.1,1133.8,951.1,1126,946.1,1126z"/>
<path class="st0" d="M1045.3,913.7c-1.5-2-4.4-3.9-7-3.9c-0.9,0-1.9,0-2.8,0c-1.8,0.3-3.5,1-4.9,2.1c-2.2,1.7-3.6,4.2-3.9,7
	c-0.3,2.7,0.4,5.5,2.1,7.7c1.5,2,4.4,3.9,7,3.9c0.9,0,1.9,0,2.8,0c1.8-0.3,3.5-1,4.9-2.1c2.2-1.7,3.6-4.2,3.9-7
	C1047.8,918.7,1047,915.9,1045.3,913.7z"/>
<path class="st0" d="M1486.2,638.1c-0.6-3.7-2.7-8.2-6-10.2c-0.7-0.4-1.3-0.8-2-1.3c-1.3-0.8-2.7-1.7-3.9-2.2c-2.5-1-4.6-1.3-7-1.2
	c-2.3-0.2-4.5,0.1-6.9,1.1c-3.6,1.6-6.6,4.5-8.1,8.2c-1.6,3.8-1.5,8.1,0.1,11.9c0.7,1.6,1.8,3.2,3.1,4.6c2.3,3,5.6,4.6,9,5.9
	c6.6,2.5,14.2,0.7,18.6-5C1485.7,646.6,1486.9,642.2,1486.2,638.1z"/>
<path class="st0" d="M1358.6,790.3c-1.7-2.2-4.8-4.4-7.7-4.4c-1,0-2.1,0-3.1,0c-2,0.3-3.8,1.1-5.4,2.3c-2.4,1.9-4,4.7-4.4,7.7
	c-0.4,3,0.5,6.1,2.4,8.5c1.7,2.2,4.8,4.4,7.7,4.4c1,0,2.1,0,3.1,0c2-0.3,3.8-1.1,5.4-2.3c2.4-1.9,4-4.7,4.4-7.7
	C1361.4,795.8,1360.5,792.7,1358.6,790.3z"/>
<path class="st0" d="M1335,1071.1c-1.1-3.4-3.4-6.6-6.1-8.7c-7.6-5.8-18.7-4.2-24.4,3.3c-5.8,7.6-4.2,18.7,3.3,24.4
	c3.7,2.8,8.5,4.1,13.1,3.4c6.2-0.9,11-5,13.6-10.6c0.1-0.1,0.1-0.3,0.2-0.5C1336.4,1078.7,1336.5,1074.9,1335,1071.1z"/>
<path class="st0" d="M1183.3,1289.4c-1.5-3.5-4.3-5-7.8-5.8c-2.4-0.6-5.1-0.6-7.5-0.2c0,0,0,0,0,0c-2.4-1.1-5.2-1.6-8.2-1.2
	c-8.2,1.2-14,9.1-12.8,17.3c1,6.7,6.5,12,13.2,12.9c6,0.7,11.1-2,14.1-6.5c0.2-0.1,0.5-0.2,0.7-0.4c3.8-2,6.3-4.8,8.3-8.5
	C1184.6,1294.9,1184.3,1291.6,1183.3,1289.4z"/>
<path class="st0" d="M1477.2,1192.4c-3.1-7.3-10-12.4-17.9-13.4c-7.9-1-15.8,2.4-20.6,8.7c-2.4,3.2-3.9,6.9-4.4,10.9
	c-0.5,4,0.1,7.9,1.7,11.6c1.2,2.2,2.3,4.6,4,6.5c2.3,3,5.2,5.2,8.7,6.6c3.6,1.5,7.4,1.9,11.3,1.4c3.7-0.6,7.1-2,10-4.3
	c1.3-1.3,2.6-2.6,3.9-3.9c1.3-1.7,2.2-3.5,3-5.4c0.2-0.4,0.3-0.8,0.5-1.3c0.5-1.9,1-3.9,1.5-5.8
	C1479.4,1200,1478.8,1196.1,1477.2,1192.4z"/>
<path class="st0" d="M788.6,957.2c-15.4,0-18.6,24.1-3,24.1C801.1,981.3,804.3,957.2,788.6,957.2z"/>
<path class="st0" d="M480.3,905.6c-1.9-2.4-5.3-4.8-8.5-4.8c-6.4,0-15.4,0.3-19.4,6.2c-2.8,4.2-2.7,8.7,0.1,12.8
	c3.2,4.7,10.8,6.1,16.2,6.1c3.5,0,6.5-0.3,9.4-2.6c2.6-2.1,4.4-5.1,4.8-8.5C483.3,911.6,482.3,908.3,480.3,905.6z"/>
<path class="st0" d="M533.7,735.4c-0.7-1.6-1.5-2.8-2.4-3.8c0-0.1-0.1-0.1-0.1-0.2c-0.6-0.9-1.4-1.6-2.5-2.5
	c-2.2-1.7-4.1-2.2-6.8-2.7c-3.1-0.6-5.5,0.3-8.4,1.1c-2.5,1.1-4.5,2.7-6.1,4.8c-1.7,2.2-2.7,4.7-3,7.4c-0.2,0.8-0.2,1.6-0.2,2.4
	c0,1.4,0,2.7,0,4.1c0.4,2.7,1.4,5.1,3.1,7.2c2.5,3.2,6.2,5.3,10.2,5.8c4,0.5,8.1-0.6,11.3-3.1c2.9-2.2,5.8-6.4,5.8-10.2
	c0-0.6,0-1.3,0.1-1.9C535.1,740.9,534.8,738.1,533.7,735.4z"/>
<path class="st0" d="M739.9,822.4c-2-2.6-5.7-5.2-9.1-5.2c-1.2,0-2.4,0-3.7,0c-2.4,0.4-4.5,1.3-6.4,2.8c-2.8,2.2-4.7,5.5-5.1,9.1
	c-0.4,3.6,0.6,7.2,2.8,10.1c2,2.6,5.7,5.2,9.1,5.2c1.2,0,2.4,0,3.7,0c2.4-0.4,4.5-1.3,6.4-2.8c2.8-2.2,4.7-5.5,5.1-9.1
	C743.1,828.9,742.1,825.3,739.9,822.4z"/>
<path class="st0" d="M240.8,1153.2c0.4-5.3-4.6-9.8-9.4-10.6c-2.5-0.4-5.1-0.2-7.6,0.2c-1.7,0.3-4,0.8-5.4,1.4
	c-1.8,0.8-3.1,1.7-4.3,2.9c-1.4,0.9-2.6,2-3.5,3.4c-1.8,2.9-2.6,4.1-3.1,7.6c-0.3,2.2,0,6.3,1.1,8.3c1.8,3,2.2,4.2,5,6.4
	c1.3,1,2.7,1.7,4.2,2.4c2.2,1,4.8,1.4,7.3,1.6c8.6,0.7,16.6-5,17.7-13.8C243.2,1159.7,242.5,1156.2,240.8,1153.2z"/>
<path class="st0" d="M390.2-371.7c-0.1-0.1-0.1-0.2-0.2-0.4c-2.2-4.9-6.1-8.9-11.1-10.9c-1.8-0.5-3.6-0.9-5.4-1.4
	c-3.7-0.4-7.3,0.1-10.7,1.5c-0.1,0-0.3,0.1-0.4,0.1c-3.4,1.5-6.2,3.7-8.4,6.6c-3.3,4.3-5.1,10.4-4.1,15.9c0.8,4.3,2.1,8.5,4.8,12
	c1.2,1.7,2.7,3.2,4.5,4.2c3.7,2.1,8.1,4.5,12.6,3.5c3.5-0.8,7-1.7,9.8-4.1c0.8-0.7,1.6-1.5,2.3-2.3
	C391.2-352.7,394.1-363.1,390.2-371.7z"/>
<path class="st0" d="M649.3-421.7c-1.3-0.9-2.6-1.6-4-2.3c-1-0.5-1.9-1-2.9-1.5c-5.4-2.8-11.5-1.5-16.9,0.2
	c-4.3,1.4-7.5,4.8-10.4,7.9c-4.3,4.5-6,12.2-4.9,18.2c1.9,10.7,12.2,20.4,23.8,18.2c4.2-0.8,7.5-1.9,10.9-4.6c2-1.7,3.4-3.3,4.6-5.1
	c4-3.2,6.7-8.3,7.3-13.1C657.7-410.2,655-418.1,649.3-421.7z"/>
<path class="st0" d="M845.6-493.5c-3.2-4.1-9.6-5.1-13.7-1.7c-1.2,1-2.2,2-3.1,3.2c-0.5,0.5-0.9,1.1-1.3,1.7
	c-1.2,1.6-1.9,3.4-2.2,5.3c-0.2,2,0,3.9,0.8,5.7c1.5,3.6,4.9,6.1,8.8,6.6c3.9,0.5,7.8-1.2,10.1-4.3c1.2-1.6,1.9-3.4,2.2-5.3
	c0.1-0.7,0.1-1.5,0-2.2C848.2-487.4,847.6-490.9,845.6-493.5z"/>
<path class="st0" d="M143.2-388.7c-1.8-1.4-3.9-2.2-6.1-2.5c-2.3-0.3-4.5,0-6.6,0.9c-1.1,0.6-2.4,1.2-3.4,2.1
	c-2.2,1.9-2.8,2.8-4.1,5.4c-1.2,2.3-0.9,4.3-0.9,6.7c0,2.1,1.5,4.2,2.5,5.9c1.3,1.6,2.8,2.8,4.7,3.6c2,0.8,4,1.1,6.1,0.8
	c0.1,0,0.2,0,0.3-0.1c6-0.2,11.5-4.9,12.3-11.2C148.7-381.5,146.8-386,143.2-388.7z"/>
<path class="st0" d="M424-50.9c-6,0-7.3,9.4-1.2,9.4C428.9-41.4,430.1-50.9,424-50.9z"/>
<path class="st0" d="M1228.6,197.2c-0.2-0.1-0.4-0.1-0.7-0.2c-1.1-0.3-2-0.1-3,0.2c-1.1,0.4-2.1,1.5-2.5,2.6c-1,2.4,0.2,5.2,2.6,6.2
	c2.4,1,5.2-0.2,6.2-2.6C1232.1,201.1,1231,198,1228.6,197.2z"/>
<path class="st0" d="M1567.9,1383.4c-0.3-2.8-2.8-5.1-5.6-5.4c-3.4-0.4-6.8,2.1-7.1,5.6c-0.1,1.4-0.3,2.7-0.4,4.1
	c-0.4,3.7,2.2,7.2,5.9,7.6c4.6,0.6,8-3.4,7.6-7.8L1567.9,1383.4z"/>
<path class="st0" d="M1919.1,1371.2c-5.3,0-6.4,8.3-1,8.3C1923.4,1379.5,1924.5,1371.2,1919.1,1371.2z"/>
<path class="st0" d="M1870.2,1373.7c-4.7-0.6-8.1,4.2-6.4,8.5c0.3,0.6,0.5,1.3,0.8,1.9c0.4,1,1.2,1.7,1.9,2.4c1.8,1.9,4.2,1.8,6,0
	c0.4-0.4,0.9-0.8,1.2-1.3c0.7-0.9,1-2.1,1.4-3.1C1876.6,1378.5,1874.2,1374.2,1870.2,1373.7z"/>
<path class="st0" d="M1743.6,1336.6c-10.8-13.8-28.5-4.3-39.1,4c-9.2,7.2-10.9,20.9-3.7,30.2c8.6,11,25.5,10.7,34-0.2
	c1.9-2.4,4-4.7,5.7-7.2c0.9-1.4,2-2.8,3.1-4.1C1748.7,1352.8,1748.6,1342.9,1743.6,1336.6z"/>
<path class="st0" d="M1823.7,1281c-0.6-0.3-1.1-0.5-1.7-0.8c-9.6-4.3-20.8,2.8-22,12.9c-0.7,5.6,1.7,11.3,6.2,14.7
	c4.5,3.4,10.9,4.3,16.1,2c0.6-0.3,1.1-0.5,1.7-0.8c4.9-2.2,8.4-6.7,9.1-12.1C1833.9,1290,1829.9,1283.7,1823.7,1281z"/>
<path class="st0" d="M1291.1,1393.7c-2.2-2.8-5.5-4.7-9.1-5.2c-4.9-0.6-9.5,1.5-12.5,5.3c-1.8,2.2-3.1,4.1-4.5,6.6
	c-1.2,2.2-1.2,5.2-1,7.5c0.2,1.8,1.4,4.9,2.7,6.3c2.2,2.4,2.6,2.7,5.5,4.2c2.2,0.9,4.5,1.2,6.9,0.8c3.4-0.5,6.5-2.3,8.5-5
	c0.3-0.4,0.5-0.7,0.8-1.1c0.1-0.1,0.2-0.2,0.3-0.3C1294.5,1408.2,1295.8,1399.7,1291.1,1393.7z"/>
<path class="st0" d="M1299.4,1249.6c-12.4,0-15,19.4-2.4,19.4C1309.4,1269,1311.9,1249.6,1299.4,1249.6z"/>
<path class="st0" d="M1458.9,1404.5c-1.6-5.4-7.9-9.2-13.1-9.8c-3.9-0.5-7.7-0.7-11.7-0.5c-7.5,0.5-13.5,7.7-14.4,14.8
	c-1.1,8.8,5.6,18.3,14.8,19c4,0.3,7.8-0.1,11.7-0.6c5.2-0.7,11.3-4.8,12.8-10c0.5-1.7,1.2-2.9,1.4-4.8
	C1460.8,1409.6,1459.7,1407.3,1458.9,1404.5z"/>
<path class="st0" d="M859.9,1369c-1.5,0.3-3.2,0.5-4.6,1.1c-4.6,1.9-4.4,8.6,0.1,10.5c1.4,0.6,3.2,0.8,4.7,1.1
	c3.4,0.7,6.8-2.3,7.1-5.6C867.6,1372.2,864,1368.1,859.9,1369z"/>
<path class="st0" d="M963.5,1272c-0.9,0-1.1,1.4-0.2,1.4C964.2,1273.4,964.4,1272,963.5,1272z"/>
<path class="st0" d="M1073.6,1372.9c-0.7-0.7-1.4-1.3-2-2c-1.6-1.2-3.4-2-5.5-2.2c-1-0.2-2.1-0.1-3.1-0.2c-3.1-0.1-5.9,0.4-8.4,2.3
	c-2.4,1.9-3.9,4.6-4.3,7.6c-0.4,3,0.5,6.1,2.3,8.4c1.2,1.6,2.8,2.8,4.7,3.5c1.9,0.8,4,1,6,0.7c1,0,2.1,0.1,3.1-0.2
	c2-0.3,3.7-1.1,5.3-2.3c2.3-1.8,3.9-4.5,4.2-7.5C1076.3,1378.2,1075.4,1375.2,1073.6,1372.9z"/>
<path class="st0" d="M603.5,1441.4c0-1.3-0.1-2.7-0.1-4c-0.1-2.6-2.8-4.8-5.2-5.1c-3-0.4-6.6,2-6.7,5.2l-0.1,4
	c-0.1,3.3,1.8,6.4,5.3,6.8c1.6,0.2,3.2-0.3,4.5-1.3C603.1,1445.7,603.6,1443.7,603.5,1441.4z"/>
<path class="st0" d="M376.3,1327.7c-3.5-1.9-8-2-11.6-0.4c-4.4,1.9-7.5,6-8.1,10.7c-0.6,4.7,1.4,9.5,5.2,12.4
	c4.1,3.1,9.9,3.6,14.4,1.2c5.3-0.7,9.5-5.3,10.1-10.5C387.1,1334.8,382.6,1328.7,376.3,1327.7z"/>
<path class="st0" d="M120.3,1426.1c-1-1.3-2.2-2.3-3.6-3c-1.5-2-3.7-3.3-6.4-3.5c-2.2-0.2-4.7,0-6.7,1.1c0.9-0.2,1.8-0.5,2.6-0.8
	c-3.1,0.7-5.7,2-7.7,4.5c-2.6,3.5-3.1,8.4-1.2,12.3c2.3,4.9,6.9,7.8,12.2,8.5c6.4,0.8,12.4-3.9,13.2-10.3
	C123.1,1431.7,122.3,1428.6,120.3,1426.1z"/>
<path class="st0" d="M122.6,1231.4c-1.4-1.8-3.3-2.9-5.4-3.3c-1.3-1.5-3-2.6-5.2-2.8c-3.7-0.5-7,1.7-8.5,5
	c-1.6,3.5-1.1,8.5,1.3,11.5c2.4,3,5.9,3.8,9.6,4.2c4.9,0.5,9.5-2.9,10.1-7.9C124.7,1235.7,124.1,1233.3,122.6,1231.4z"/>
<path class="st0" d="M248.7,1298.5c-1-1-2-1.9-2.9-2.9c-2.3-1.8-4.9-2.8-7.8-3.2c-1.4,0-2.9,0-4.3,0c-2.8,0.4-5.3,1.5-7.6,3.3
	c-3.4,2.6-5.6,6.5-6.1,10.8c-0.5,4.2,0.7,8.6,3.3,11.9c1,1,2,1.9,2.9,2.9c2.3,1.8,4.9,2.8,7.8,3.2c1.4,0,2.9,0,4.3-0.1
	c2.8-0.4,5.3-1.5,7.6-3.3c3.4-2.6,5.6-6.5,6.1-10.8C252.5,1306.1,251.3,1301.8,248.7,1298.5z"/>
<path class="st0" d="M76.6,1029.8c-13.8,0-16.7,21.6-2.7,21.6C87.8,1051.4,90.6,1029.8,76.6,1029.8z"/>
<path class="st0" d="M525.9,1358c-1.7-1.7-3.4-3.4-5.1-5.1c-4.1-3.1-8.6-4.9-13.6-5.5c-2.5,0-5,0.1-7.6,0.1
	c-4.9,0.7-9.3,2.6-13.2,5.7c-5.9,4.6-9.7,11.4-10.6,18.8c-0.9,7.4,1.2,14.9,5.8,20.8c1.7,1.7,3.4,3.4,5.1,5.1
	c4.1,3.1,8.6,4.9,13.6,5.6c2.5,0,5-0.1,7.6-0.1c4.9-0.7,9.3-2.6,13.2-5.7c5.9-4.6,9.7-11.4,10.6-18.8
	C532.6,1371.4,530.5,1363.9,525.9,1358z"/>
<path class="st0" d="M281.6,1435.7c-0.4-2.9-1.5-5.4-3.3-7.7c-1.8-2.3-4-4-6.7-5.1c-3.2-1.7-7.2-1.3-10.7-1.1
	c-0.8,0-1.5,0.2-2.3,0.3c-5.3,1.1-11,3.3-14.2,8.1c-2.8,4.2-4.3,8.7-3.5,13.7c0.9,6.3,5.2,11.8,11.1,14.2c4.5,1.9,9.7,1.8,14.2-0.1
	c2.8-1.2,5.1-3.1,7-5.4c2-1.2,3.5-2.4,5.2-4.4C281.1,1444.7,282.2,1439.9,281.6,1435.7z"/>
<path class="st0" d="M590,1016.6c-1.5-1.5-3-2.9-4.5-4.4c-3.5-2.7-7.5-4.3-11.9-4.8c-2.2,0-4.4,0.1-6.6,0.1
	c-4.3,0.7-8.1,2.3-11.5,4.9c-5.1,4-8.5,9.9-9.3,16.4c-0.8,6.4,1,13,5,18.1c1.5,1.5,3,2.9,4.5,4.4c3.5,2.7,7.5,4.3,11.9,4.8
	c2.2,0,4.4,0,6.6-0.1c4.3-0.7,8.1-2.3,11.5-4.9c5.1-4,8.5-9.9,9.3-16.4C595.8,1028.3,594,1021.7,590,1016.6z"/>
<path class="st0" d="M1134.2,823c-1.8-1.7-3.5-3.5-5.3-5.2c-4.2-3.2-8.9-5.1-14.1-5.7c-2.6,0-5.2,0.1-7.8,0.1
	c-5.1,0.8-9.6,2.7-13.6,5.9c-6,4.7-10,11.7-11,19.4c-0.9,7.6,1.2,15.4,5.9,21.4l5.3,5.2c4.2,3.2,8.9,5.1,14.1,5.7
	c2.6,0,5.2-0.1,7.8-0.1c5.1-0.8,9.6-2.7,13.6-5.9c6-4.7,10-11.7,11-19.4C1141,836.8,1138.9,829.1,1134.2,823z"/>
<path class="st0" d="M922.7,965.6c-0.5-0.3-0.9-0.5-1.3-0.8c-1.9-1.8-4.3-3.1-6.8-3.2c-1.1,0-2.1-0.1-3.2-0.1
	c-3.4-0.1-6.3,0.4-9.1,2.5c-2.6,2-4.2,5-4.6,8.2c-0.4,3.2,0.5,6.5,2.5,9.1c2.9,3.7,7,4.8,11.5,4.6c1.1,0,2.1-0.1,3.2-0.1
	c2.4-0.1,4.7-1.4,6.5-3.1c0.5-0.3,0.9-0.5,1.5-0.8C928.1,978.3,927.9,969,922.7,965.6z"/>
<path class="st0" d="M861.7,1139.3c0-0.1,0-0.1,0-0.2c0-0.1,0-0.2,0-0.3c0-0.1,0-0.2,0-0.3c0-0.1,0-0.1,0-0.2c0-0.2-0.1-0.3-0.1-0.5
	c0,0,0,0,0,0c-0.1-0.5-0.4-1-0.7-1.3c-0.1-0.1-0.1-0.1-0.2-0.2c0-0.1-0.1-0.1-0.2-0.2c-0.6-0.7-1.5-1.2-2.5-1.3
	c-0.4,0-0.8-0.1-1.2-0.1c-0.6,0-1.2,0-1.7,0.2c-0.1,0-0.3,0-0.4,0c-1.5,0.1-3.6-0.1-4.8,1c-1.9,1.8-1.8,4.1,0,5.9
	c1.1,1.1,3.2,0.9,4.7,1c0.2,0,0.5,0,0.7,0c0.5,0.1,1,0.2,1.6,0.2c0.4,0,0.8-0.1,1.2-0.1c1-0.1,1.8-0.6,2.5-1.3c0,0,0-0.1,0.1-0.1
	c0.1-0.1,0.2-0.2,0.2-0.3C861.3,1140.6,861.6,1140,861.7,1139.3z"/>
<path class="st0" d="M1080.2,1048.5c-7.1,0-8.5,11.1-1.4,11.1C1085.9,1059.6,1087.3,1048.5,1080.2,1048.5z"/>
<path class="st0" d="M1175.8,1126.9c-1.1-2.5-3.4-4.2-6.1-4.6c-2.7-0.3-5.4,0.8-7,3c-2.2,2.9-1.8,6.5,0.1,9.4
	c0.5,0.7,0.9,1.6,1.5,2.2c1.1,1.2,2.2,2,3.9,2.2c2.2,0.3,3.9-0.7,5.3-2.2c0.6-0.6,1-1.5,1.5-2.2
	C1176.4,1132.2,1176.9,1129.5,1175.8,1126.9z"/>
<path class="st0" d="M1362,944.6c-14.4,0-17.3,22.4-2.8,22.4C1373.7,967,1376.6,944.6,1362,944.6z"/>
<path class="st0" d="M1283.1,690.1l-2.9,0.8c-8.8,2.3-14,17.4-2.5,20.4c0.9,0.2,1.8,0.5,2.7,0.7
	C1301.1,717.5,1299,685.9,1283.1,690.1z"/>
<path class="st0" d="M1361.6,492.7c-10.1,0-12.2,15.8-1.9,15.8C1369.8,508.5,1371.9,492.7,1361.6,492.7z"/>
<path class="st0" d="M1467.9,517.1c-1.8,0-2.1,2.8-0.3,2.8C1469.4,519.8,1469.7,517.1,1467.9,517.1z"/>
<path class="st0" d="M1580.5-369.9c-11.7,0-14.1,18.3-2.2,18.3C1589.9-351.7,1592.3-369.9,1580.5-369.9z"/>
<path class="st0" d="M1695.6-400.4c-1.2-0.2-2.4-0.4-3.6-0.5c-4.8-0.7-9.4,3-9.9,7.8c-0.7,5.8,4.4,10.8,10.2,9.9l3.6-0.5
	c3.7-0.5,6.6-3.6,7.1-7.3C1703.5-395.6,1700.2-399.7,1695.6-400.4z"/>
<path class="st0" d="M1400.9-229.5c-1.7-2.1-4.8-4.3-7.6-4.3c-1,0-2,0-3.1,0c-2,0.3-3.8,1.1-5.4,2.3c-2.4,1.9-3.9,4.6-4.3,7.6
	c-0.4,3,0.5,6.1,2.3,8.4c1.7,2.1,4.8,4.3,7.6,4.3c1,0,2,0,3.1,0c2-0.3,3.8-1.1,5.4-2.3c2.4-1.9,3.9-4.6,4.3-7.6
	S1402.8-227.1,1400.9-229.5z"/>
<path class="st0" d="M1363.9-122.6c-0.5-0.3-1-0.7-1.5-1c-3.1-2.1-6.8-2.8-10.3-1.3c-3.3,1.4-5.7,4.6-6.2,8.2
	c-0.4,3.6,1.1,7.3,4,9.5c1.5,1.1,3.2,1.8,5,2c2.9,0.4,5.2-0.6,7.6-2.1c0.5-0.3,1-0.6,1.5-1C1368.7-111.3,1368.6-119.5,1363.9-122.6z
	"/>
<path class="st0" d="M1276.9-356.2c-1.6-2.1-4-2.8-6.5-2.6c-2.4,0.2-4.7,0.1-6.7,1.7c-3.4,2.7-3.3,7.8,0.1,10.5
	c1.9,1.6,4.5,1.5,6.8,1.7c3.8,0.3,7.3-2.2,7.8-6.1C1278.5-352.8,1278-354.7,1276.9-356.2z"/>
<path class="st0" d="M1348.5-473.6c-13,0-15.6,20.2-2.5,20.2C1359-453.3,1361.6-473.6,1348.5-473.6z"/>
<path class="st0" d="M1120.2-298.4c-5.9,0-7,9.1-1.1,9.1C1124.9-289.3,1126.1-298.4,1120.2-298.4z"/>
<path class="st0" d="M1002.2-460.4c-1-1.3-2.3-2.3-3.9-2.9c-1.6-0.7-3.3-0.9-5-0.6c-0.8,0-1.6,0.1-2.4,0.2c-2.1,0.3-3.7,1.1-5.5,2.2
	c-3.5,2.3-4.4,7.5-2.8,11c1,2.2,2.8,4,5,4.9c1.8,0.8,3.6,0.8,5.3,0.4c0,0,0.1,0,0.1,0l-0.3,0.1c0.2,0,0.3-0.1,0.5-0.1
	c0.1,0,0.3,0,0.4,0c2.6,0.1,4.9-0.3,7-1.9c2-1.5,3.3-3.8,3.6-6.3C1004.4-455.9,1003.7-458.4,1002.2-460.4z"/>
<path class="st0" d="M831.1-319.6c-15.8,0-19,24.6-3,24.6C843.8-294.9,847-319.6,831.1-319.6z"/>
<path class="st0" d="M701.1-417.5c-9.8,0-11.7,15.2-1.9,15.2C708.9-402.3,710.9-417.5,701.1-417.5z"/>
<path class="st0" d="M591.3-299.5c-1.3-1.7-3.8-3.5-6.1-3.5c-2.6,0-4.7,0.2-6.8,1.9c-1.9,1.5-3.2,3.7-3.5,6.1
	c-0.3,2.4,0.4,4.9,1.9,6.8c1.3,1.7,3.8,3.5,6.1,3.5c2.6,0,4.7-0.2,6.8-1.9c1.9-1.5,3.2-3.7,3.5-6.1
	C593.5-295.1,592.8-297.6,591.3-299.5z"/>
<path class="st0" d="M466.9-256.9c-0.9,0.1-1.7,0.2-2.6,0.4c-2.5,0.5-4.2,1.5-5.9,3.3c-1.1,1.1-1.7,3-1.9,4.5
	c-0.4,2.9,0.4,6.1,2.9,7.9c2.7,2,5.8,1.7,8.5-0.1c0.3-0.2,0.5-0.3,0.7-0.5c3.6-0.3,6.8-3.1,7.2-6.8
	C476.4-253.4,471.9-257.5,466.9-256.9z"/>
<path class="st0" d="M537.8-456.6c-6.9,1.3-11.8,6.1-12.7,13.1c-0.4,3,0.7,6.1,2.7,8.3c0.3,0.5,0.6,1,0.9,1.4c1.4,1.6,3.1,2.7,5.2,3
	c3,0.4,5.2-1,7.2-3c0,0,0,0,0,0c0.5-0.3,0.9-0.7,1.3-1.1c4.1-1.2,7.3-4.7,7.9-9.3C551.4-451.2,545-458,537.8-456.6z"/>
<path class="st0" d="M308.5-423.9c-12.2,0-14.7,19.1-2.3,19.1C318.4-404.8,320.9-423.9,308.5-423.9z"/>
<path class="st0" d="M114.9-270.4c-0.4-1.3-1.6-2.5-2.5-3.6c-0.4-0.5-0.7-0.9-1.1-1.4c-2.1-2.6-6-3.1-8.6-1.1
	c-3.2,2.5-3,7.3,0.1,9.7c1.5,1.2,3.2,2.9,5,3.6c1.9,0.7,3.9,0.5,5.5-0.8C115.3-265.4,115.8-268,114.9-270.4z"/>
<path class="st0" d="M271-344.9c-1.5-2-4.4-3.9-7-3.9c-0.9,0-1.9,0-2.8,0c-1.8,0.3-3.5,1-4.9,2.1c-2.2,1.7-3.6,4.2-3.9,7
	c-0.3,2.7,0.4,5.5,2.1,7.7c1.5,2,4.4,3.9,7,3.9c0.9,0,1.9,0,2.8,0c1.8-0.3,3.5-1,4.9-2.1c2.2-1.7,3.6-4.2,3.9-7
	C273.5-339.9,272.7-342.7,271-344.9z"/>
<path class="st0" d="M100.3-429.7c-3-1.3-6-2.7-9-4c-3.3-1.5-7.2,0.3-8.6,3.6c-1.5,3.6,0.4,6.8,3.6,8.6c2.9,1.6,5.8,3.2,8.6,4.8
	c3.3,1.8,7.8-0.6,9.1-3.8C105.5-424.2,103.7-428.2,100.3-429.7z"/>
<path class="st0" d="M588.1,1177.9c-0.6-4.7-5-8.1-9.7-7.4c-6.3,0.9-9.4,8.6-5.5,13.7c1.9,2.4,4.9,3.6,8,3.2
	c3.8-0.6,6.7-3.6,7.2-7.4C588.2,1179.3,588.2,1178.6,588.1,1177.9z"/>
<path class="st0" d="M857.2,1247.7c-9.2,0-11.1,14.4-1.8,14.4C864.7,1262.1,866.6,1247.7,857.2,1247.7z"/>
<path class="st0" d="M722.2,1490.3c-0.4-0.3-0.7-0.6-1.1-0.9c0-0.3-0.1-0.5-0.2-0.8c0.1-0.4,0.1-0.9,0.2-1.3
	c0.3-2.1-1.6-3.9-3.7-3.6c-0.7,0.1-1.4,0.2-2.2,0.4c-1.9-0.2-4.6,0.8-5.6,2.5c-1.6,2.8-2,5.1-0.9,8.3c0.6,1.9,2.4,3.7,3.7,5.3
	c2.4,2.9,6.7,3.6,9.8,1.2C725.9,1498.5,725.6,1493.2,722.2,1490.3z"/>
<path class="st0" d="M615.9,441.9c-6.6,0-7.9,10.2-1.3,10.2C621.3,452.2,622.6,441.9,615.9,441.9z"/>
<path class="st0" d="M308,1062.4c-6.4,0-7.7,10-1.2,10C313.1,1072.4,314.4,1062.4,308,1062.4z"/>
<path class="st0" d="M1079.5,92c-1.7-2.1-4.7-4.3-7.5-4.3c-1,0-2,0-3,0c-2,0.3-3.7,1.1-5.3,2.3c-2.3,1.8-3.9,4.6-4.3,7.5
	c-0.4,3,0.5,6,2.3,8.3c1.7,2.1,4.7,4.3,7.5,4.3c1,0,2,0,3,0c2-0.3,3.7-1.1,5.3-2.3c2.3-1.8,3.9-4.6,4.3-7.5
	C1082.1,97.3,1081.3,94.3,1079.5,92z"/>
<path class="st0" d="M1515.4,1016.6c-0.8-2.9-1.4-5.9-3.5-8.1c-2-2.1-4-3.6-7.1-4c-1.9-0.2-3.7,0-5.5,0.8c-1.7,0.7-3.1,1.8-4.2,3.3
	c-1.4,1.5-2.1,3.3-2.7,5.2c-0.3,1-0.5,2.1-0.8,3.1c-0.3,2.2,0,4.2,0.9,6.2c1.7,3.9,5.4,6.6,9.6,7.2c3.1,0.4,6.4-0.5,8.8-2.5
	c1.7-1.3,2.9-2.9,3.7-4.9C1515.4,1020.8,1515.7,1018.7,1515.4,1016.6z"/>
<path class="st0" d="M1406.4,1085.3c-11.4,0-13.7,17.7-2.2,17.7C1415.6,1103,1417.9,1085.3,1406.4,1085.3z"/>
<path class="st0" d="M950.9,1310.4c-8.9,0-10.7,13.8-1.7,13.8C958.1,1324.3,959.9,1310.4,950.9,1310.4z"/>
<path class="st0" d="M1169.9,1392.7c-6.1-0.8-11.4,4.7-10.5,10.8c0.3,2,0.3,4.4,1.2,6.1c1.4,2.8,3.8,4.9,7.1,5.3
	c4.1,0.5,7.5-1.9,9.3-5.4c0.9-1.8,0.9-4.3,1.2-6.2C1178.9,1398.2,1175,1393.4,1169.9,1392.7z"/>
<path class="st0" d="M1442.7,1321.4c0-0.3,0-0.7,0-1c0-0.3,0-0.6,0-0.8c0-0.1,0-0.3,0-0.4c0-0.2-0.1-0.4-0.2-0.6
	c-0.1-0.3-0.1-0.5-0.2-0.8c-0.1-0.3-0.2-0.6-0.4-0.9c-0.1-0.3-0.2-0.5-0.4-0.8c-0.1-0.3-0.3-0.5-0.5-0.8c-0.1-0.2-0.2-0.4-0.3-0.5
	c-0.1-0.1-0.1-0.1-0.2-0.2c-0.2-0.3-0.5-0.6-0.8-0.8c-0.1-0.1-0.2-0.2-0.4-0.4c-0.1-0.1-0.2-0.2-0.3-0.3c-1.2-0.9-2.7-1.5-4.2-1.8
	c-0.2,0-0.4-0.1-0.7-0.1c-0.2,0-0.4,0-0.6,0c-2.2-0.1-4.3,0.5-6,2c-0.4,0.4-0.9,0.8-1.3,1.2c-0.8,0.7-1.4,1.4-1.9,2.2
	c-1.2,1.3-2.5,2.7-3.7,4c-2.7,3-2.3,8.1,0.1,11.1c2.9,3.7,9.1,4.9,12.7,1.6c1.4-1.2,2.7-2.5,4.1-3.7c0.8-0.5,1.5-1.2,2.1-1.9
	c0.4-0.4,0.8-0.9,1.2-1.3c1-1.1,1.5-2.6,1.8-4.2c0-0.1,0.1-0.3,0.1-0.4C1442.7,1321.6,1442.7,1321.5,1442.7,1321.4z"/>
<path class="st0" d="M1624.6,1290.1c0-0.3,0-0.6,0-0.9c0-0.2,0-0.5,0-0.7c0-0.1,0-0.2,0-0.3c0-0.2-0.1-0.4-0.1-0.6
	c-0.1-0.2-0.1-0.5-0.2-0.7c-0.1-0.3-0.2-0.5-0.3-0.8c-0.1-0.2-0.2-0.5-0.3-0.7c-0.1-0.2-0.3-0.5-0.4-0.7c-0.1-0.2-0.2-0.3-0.3-0.5
	c-0.1-0.1-0.1-0.1-0.2-0.2c-0.2-0.2-0.4-0.4-0.6-0.6c-0.2-0.2-0.4-0.4-0.6-0.5c-0.1-0.1-0.1-0.1-0.2-0.2c-0.2-0.1-0.3-0.2-0.5-0.3
	c-0.2-0.1-0.4-0.3-0.7-0.4c-0.2-0.1-0.5-0.2-0.8-0.3c-0.3-0.1-0.5-0.2-0.8-0.3c-0.2-0.1-0.5-0.1-0.8-0.2c-0.2,0-0.4-0.1-0.6-0.1
	c-0.1,0-0.2,0-0.3,0c-0.3,0-0.5,0-0.8,0c-0.3,0-0.6,0-0.8,0c-0.1,0-0.2,0-0.3,0c-0.1,0-0.2,0.1-0.3,0.1c-1.3,0.2-2.6,0.7-3.6,1.6
	l-1.3,1.2c-0.6,0.5-1,1.1-1.5,1.6c-1.4,1.4-2.7,2.9-4.1,4.3c-2.5,2.6-2,7.2,0.1,9.9c2.5,3.2,8.1,4.4,11.4,1.4c1.3-1.3,2.7-2.5,4-3.8
	c0.7-0.5,1.4-1.1,1.9-1.8c0.4-0.4,0.8-0.9,1.2-1.3c0.9-0.9,1.4-2.3,1.6-3.7c0-0.1,0.1-0.2,0.1-0.3
	C1624.6,1290.2,1624.6,1290.2,1624.6,1290.1z"/>
<path class="st0" d="M1882.7-398.9c-1.6-2.1-4.7-4.2-7.4-4.2c-1,0-2,0-3,0c-1.9,0.3-3.7,1-5.2,2.2c-2.3,1.8-3.8,4.5-4.2,7.4
	c-0.4,2.9,0.5,5.9,2.3,8.2c1.6,2.1,4.7,4.2,7.4,4.2c1,0,2,0,3,0c1.9-0.3,3.7-1,5.2-2.2c2.3-1.8,3.8-4.5,4.2-7.4
	C1885.4-393.6,1884.5-396.6,1882.7-398.9z"/>
<path class="st0" d="M970.4-52.1c0-0.1,0-0.2,0-0.3c0-0.1,0-0.3,0-0.4c0-0.2,0-0.3,0-0.5c0-0.1,0-0.2,0-0.3c0-0.2-0.1-0.4-0.2-0.7
	c0,0,0,0,0,0c-0.2-0.7-0.5-1.3-0.9-1.9c-0.1-0.1-0.2-0.2-0.3-0.3c-0.1-0.1-0.1-0.1-0.2-0.2c-0.9-1-2.1-1.7-3.5-1.8l-5.5-0.3
	c-2-0.1-4.5,0.5-5.6,2.4c0,0,0,0,0,0c-1.6,2.5-1.5,4.9,0,7.4c0,0,0,0,0,0c1.2,1.9,3.7,2.4,5.7,2.3c1.8-0.1,3.7-0.2,5.5-0.3
	c1.4-0.1,2.6-0.9,3.5-1.9c0,0,0.1-0.1,0.1-0.1c0.1-0.2,0.2-0.3,0.3-0.5C970-50.3,970.3-51.1,970.4-52.1z"/>
<path class="st0" d="M1053.3-209.7c-6.6,0-7.9,10.2-1.3,10.2C1058.6-199.5,1060-209.7,1053.3-209.7z"/>
<path class="st0" d="M1325.4-244c-3.4-0.4-5.2,3.4-3.4,6.1c0.7,1,1.3,1.9,2,2.9c0.4,0.7,1.6,0.6,2,0c0.7-1,1.3-2,2-2.9
	C1329.5-240.3,1328.4-243.7,1325.4-244z"/>
<path class="st0" d="M90.4,1356.6c-0.2-1.1-0.4-2.2-0.6-3.2c-0.5-2.5-2.3-4.5-5-4.8c-3.3-0.4-5.8,1.9-6.4,5
	c-0.2,1.1-0.4,2.2-0.6,3.2c-0.6,3.4,2.2,6.6,5.5,7C87.4,1364.2,91.1,1360.6,90.4,1356.6z"/>
<path class="st0" d="M30.9,1185.9c-0.4-0.8-0.9-1.7-1.4-2.4c-1.5-1.9-3.7-2.6-6-2.9c-1.8-0.2-3.5-0.5-5.3-0.7c-4.4-0.6-8.5,2.7-9,7
	c-0.6,5.3,4,9.7,9.2,9c1.6-0.2,3.3-0.4,4.9-0.6c3.1-0.4,5.4-1.6,6.9-4.2C31.2,1189.6,31.9,1187.5,30.9,1185.9z"/>
<path class="st0" d="M656.3,1346.8c-8,0-9.6,12.5-1.5,12.5C662.7,1359.3,664.3,1346.8,656.3,1346.8z"/>
<path class="st0" d="M758.9,1404.6c-8.3,0-10,13-1.6,13C765.7,1417.6,767.4,1404.6,758.9,1404.6z"/>
<path class="st0" d="M1106.9,1200.5c-6.7,0-8.1,10.5-1.3,10.5C1112.4,1211,1113.7,1200.5,1106.9,1200.5z"/>
<g class="st1">
	<path class="st2" d="M1328.5,399.5c1.3-5.2,2.4-10.4,3.4-15.7c8.3-43.2,2.2-89.9-18.8-128.6c-12.6-23.2-33-43.6-56.3-57.2
		c0.2,0,0.5,0.1,0.7,0.1c3,0,5.5-2.4,6.4-5.5c0.4-0.9,0.8-1.8,1-2.8c0.3-1.7,0.2-3.4-0.2-5.2c-1.2-4.1-4.7-7.1-8.4-7
		c-2.9,0-5.6,1.9-7,4.9c-0.7,1.5-1,3.2-0.9,4.9c0.1,2.3,1.1,5.4,2.8,6.8l0.4,0.3c0.2,0.3,0.4,0.5,0.7,0.8
		c-13.6-7.3-28.1-12.3-42.4-14.2c-36.7-24.7-81.9-29.3-121.1-16c-23.2-14.1-47.4-23.3-71.7-25.4c-7.9-18-35.4-27.2-50-32.4
		c-19-6.7-38.4-7.8-57.3-3c-22.9,5.8-40.3,22.4-53.8,43c-8.6,2.1-16.9,5.7-24,11.1c-1,0.8-2,1.6-3,2.5c-19.8-6-40.8-5.4-60.5,3.4
		c-18.2,8.2-32.9,20.6-44.5,35.9c-25.2-0.4-49.3,25.6-62.1,47.4c-5.4,9.1-9.9,19.2-13.3,29.9c-3.3,7.9-6,16.2-8.2,24.5
		c-5.4,20.8-4.9,42.7-1.5,64.3c-8.1,14.6-13.7,31-17.2,48.3c-0.8,1.3-0.9,3.7-1.2,5.2c-0.1,0.4-0.1,0.8,0,1.2
		c-3.6,21-4.3,43.1-2.8,64.7c4.7,69.3,30.9,132.2,75.8,180.4c0.9,0.9,1.8,1.8,2.7,2.7c-1.4-0.3-2.8,0.4-3.1,2.5
		c-2.3,17.4-0.4,35.6,7.3,51.4c8.4,17.1,25.5,31.3,40.4,39.6c10.4,5.8,22.3,11,34.7,14.4c3.9,7.3,7.8,14.1,11.6,19.8
		c32.5,49.7,84.4,75.9,132.4,49.2c4.2,0.6,8.5,0.2,12.6-1.1c0.7-0.2,1.4-0.5,2-0.8c11.6,2.8,23.3,4.4,35.2,4.8
		c30.5,0.9,59.5-8.9,85.2-25.6c25.1,16.2,54.2,17.2,81.1,7.8c24.2-8.5,60.2-31.2,62.4-64.7c7.7,3.9,16.2,5.5,24.5,5.7
		c18,0.3,35.7-8.7,49.2-21.3c10.8-10.1,23.7-27.9,24.8-46c3.8-1.9,7.5-4.1,11.2-6.8c17.4-12.7,40.2-35.9,42.4-61.4
		c0.3-3.6-1.4-8-4.2-10c3.3-5.6,6.3-11.6,9-17.9C1382.6,543.7,1366.5,462.1,1328.5,399.5z M699,673.3c0-0.5,0-1-0.1-1.5
		c16.7,16.8,35.7,31.2,56,42c0.6,8.7,2.5,17.7,5.3,26.7C730.8,731,696.3,709.8,699,673.3z M700.8,245.6c-14.9,24-24.2,51.9-27,81.2
		c-2.9,2-5.7,4.2-8.6,6.6c-1.9,1.6-3.6,3.3-5.4,5c1.8-25.3,8.1-49.7,19.4-71c6.4-12.1,14.8-22.4,24.8-30.5
		C702.9,239.7,701.8,242.6,700.8,245.6z M786.6,746.2c-2-4.6-3.8-9.4-5.3-14.2c4.2,3.4,8.5,6.5,12.9,9.6c1.3,1.8,2.7,3.6,4,5.4
		C794.3,746.9,790.4,746.7,786.6,746.2z M861.7,820.2c-21.1-4.2-39-20.3-53.4-38.8c5.9-0.1,11.7-0.8,17.3-2.3
		c16.2,16.5,34,30.7,53,41.9C873.1,821.5,867.5,821.3,861.7,820.2z M949.5,151.5c-4.8,1.3-9.3,3.1-13.6,5.4
		c-11.6-4.4-23.8-7.3-34.8-9.2c5.4-2.2,11-3.9,16.7-5.3c10.5-2.5,21.2-1.9,30.9-7.6c2.3-1.4,3.1-3.8,2.9-6.3
		c3.6,1.1,7.2,2.3,10.8,3.7c6.7,2.6,13.2,6.2,19.5,9.9c-7,1.6-14.1,3.9-21,7C957,149.7,953.2,150.5,949.5,151.5z M1129.7,800.6
		c-17.5,8.7-39.1,14.8-58.9,10.5c1.6-1.3,3.3-2.7,4.9-4.1c15.6-9,30.4-19.6,44.4-31.6c19.4-2.6,38.4-9.8,55.3-21.2
		c1.7-1.1,3.4-2.3,5-3.6c0.1,0.2,0.3,0.5,0.4,0.7c0.9,1.4,1.9,2.7,3,3.9C1166.5,771.8,1151.2,790,1129.7,800.6z M1258.1,723.6
		c-8.8,10.5-20.3,16.1-32.5,19.5c-7.4,2.1-17.4,2.4-24.7-2.4c16.9-7.1,32.6-17.7,46-31.2c6.7,1.3,13.2,2,19.5,2
		C1263.9,715.8,1261.2,719.9,1258.1,723.6z M1257.4,697.7c1.5-1.9,3-3.9,4.5-5.9c8.6-2.4,16.9-5.6,24.9-9.6
		C1278,689.7,1268,695.6,1257.4,697.7z M1303.1,339.1c-0.8-4.7-1.7-9.4-2.7-14.1c-3.5-16-9.2-30.9-16.3-45
		c-3-7.9-6.4-15.7-10.1-23.2c0.2-0.9,0.4-1.8,0.5-2.7c6.3,8.5,11.9,17.8,16.7,27.7C1299.9,299.7,1303.1,319.3,1303.1,339.1z"/>
	<path class="st3" d="M1310.4,384.8c1.3-5.2,2.4-10.4,3.4-15.7c8.3-43.2,2.2-89.9-18.8-128.6c-12.6-23.2-33-43.6-56.3-57.2
		c0.2,0,0.5,0.1,0.7,0.1c3,0,5.5-2.4,6.4-5.5c0.4-0.9,0.8-1.8,1-2.8c0.3-1.7,0.2-3.4-0.3-5.2c-1.2-4.1-4.7-7.1-8.4-7
		c-2.9,0-5.6,1.9-7,4.9c-0.7,1.5-1,3.2-0.9,4.9c0.1,2.3,1.1,5.4,2.8,6.8l0.4,0.3c0.2,0.3,0.4,0.5,0.7,0.8
		c-13.6-7.3-28.1-12.3-42.4-14.2c-36.7-24.7-81.9-29.3-121.1-16c-23.2-14.1-47.4-23.3-71.7-25.4c-7.9-18-35.4-27.2-50-32.4
		c-19-6.7-38.4-7.8-57.3-3c-22.9,5.8-40.3,22.4-53.8,43c-8.6,2.1-16.9,5.7-24,11.1c-1,0.8-2,1.6-3,2.5c-19.8-6-40.8-5.4-60.5,3.4
		c-18.2,8.2-32.9,20.6-44.5,35.9c-25.2-0.4-49.3,25.6-62.1,47.4c-5.4,9.1-9.9,19.2-13.3,29.9c-3.3,7.9-6,16.2-8.2,24.5
		c-5.4,20.8-4.9,42.7-1.5,64.3c-8.1,14.6-13.7,31-17.2,48.3c-0.8,1.3-0.9,3.7-1.2,5.2c-0.1,0.4-0.1,0.8,0,1.2
		c-3.6,21-4.3,43.1-2.8,64.7c4.7,69.3,30.9,132.2,75.8,180.4c0.9,0.9,1.8,1.8,2.7,2.7c-1.4-0.3-2.8,0.4-3.1,2.5
		c-2.3,17.4-0.4,35.6,7.3,51.4c8.4,17.1,25.5,31.3,40.4,39.6c10.4,5.8,22.3,10.9,34.7,14.4c3.9,7.3,7.8,14.1,11.6,19.8
		c32.5,49.7,84.4,75.9,132.4,49.2c4.2,0.6,8.5,0.2,12.6-1.1c0.7-0.2,1.4-0.5,2-0.8c11.6,2.8,23.3,4.4,35.2,4.8
		c30.5,0.9,59.5-8.9,85.1-25.6c25.1,16.2,54.2,17.2,81.1,7.8c24.2-8.5,60.2-31.2,62.4-64.7c7.7,3.9,16.2,5.5,24.5,5.7
		c18,0.3,35.7-8.7,49.2-21.3c10.8-10.1,23.7-27.9,24.8-46c3.8-1.9,7.5-4.1,11.2-6.8c17.4-12.7,40.2-35.9,42.4-61.4
		c0.3-3.6-1.4-8-4.2-10c3.3-5.6,6.3-11.6,9-17.9C1364.5,529,1348.4,447.4,1310.4,384.8z M680.9,658.6c0-0.5,0-1-0.1-1.5
		c16.7,16.8,35.7,31.2,56,42c0.6,8.7,2.5,17.7,5.3,26.7C712.7,716.3,678.2,695.1,680.9,658.6z M682.7,230.9
		c-14.9,24-24.2,51.9-27,81.2c-2.9,2-5.7,4.2-8.6,6.6c-1.9,1.6-3.6,3.3-5.4,5c1.8-25.3,8.1-49.7,19.4-71
		c6.4-12.1,14.8-22.4,24.8-30.5C684.8,225,683.7,227.9,682.7,230.9z M768.5,731.6c-2-4.6-3.8-9.4-5.3-14.2c4.2,3.3,8.5,6.5,12.9,9.6
		c1.3,1.8,2.7,3.6,4,5.4C776.2,732.2,772.3,732,768.5,731.6z M843.6,805.5c-21.1-4.2-39-20.3-53.4-38.8c5.9-0.1,11.7-0.8,17.3-2.3
		c16.1,16.5,34,30.7,53,41.9C855,806.8,849.4,806.6,843.6,805.5z M931.4,136.8c-4.8,1.3-9.3,3.1-13.6,5.4
		c-11.6-4.4-23.8-7.3-34.8-9.2c5.4-2.2,11-3.9,16.7-5.3c10.5-2.5,21.2-1.9,30.9-7.6c2.3-1.4,3.1-3.8,2.9-6.3
		c3.6,1.1,7.2,2.3,10.8,3.7c6.7,2.6,13.1,6.2,19.5,9.9c-7,1.6-14.1,3.9-21,7C938.9,135,935.1,135.8,931.4,136.8z M1111.6,785.9
		c-17.5,8.7-39.1,14.8-58.9,10.5c1.6-1.3,3.3-2.7,4.9-4.1c15.6-9,30.4-19.6,44.4-31.6c19.4-2.6,38.4-9.8,55.3-21.2
		c1.7-1.1,3.4-2.3,5-3.6c0.1,0.2,0.3,0.5,0.4,0.7c0.9,1.4,1.9,2.7,3,3.9C1148.4,757.1,1133.1,775.3,1111.6,785.9z M1240,708.9
		c-8.8,10.5-20.3,16.1-32.5,19.5c-7.4,2.1-17.4,2.4-24.7-2.4c16.9-7.1,32.6-17.7,46-31.3c6.7,1.3,13.2,2,19.5,2
		C1245.8,701.1,1243.1,705.3,1240,708.9z M1239.3,683c1.5-1.9,3-3.9,4.5-5.9c8.6-2.4,16.9-5.6,24.9-9.6
		C1259.9,675,1249.9,680.9,1239.3,683z M1285,324.4c-0.8-4.7-1.7-9.4-2.7-14.1c-3.5-16-9.2-30.9-16.3-45c-3-7.9-6.4-15.7-10.1-23.2
		c0.2-0.9,0.4-1.8,0.5-2.7c6.3,8.5,11.9,17.8,16.7,27.7C1281.8,285,1285,304.7,1285,324.4z"/>
</g>
<path class="st0" d="M624.6,261.3c-0.4,0-0.8,0-1.3,0c-0.7-0.9-1.7-1.6-2.9-1.7c-2.5-0.3-4.8,1.5-5.1,4c-0.3,2.5,1.5,4.8,4,5.1
	c1.7,0.2,3.1-0.5,4.1-1.7c0.4,0,0.9,0,1.3-0.1C627.8,266.7,627.7,261.4,624.6,261.3z"/>
<path class="st0" d="M749.2,130c-0.1,0-0.2,0.2,0,0.2C749.3,130.3,749.4,130,749.2,130z"/>
</svg>
